<mxfile host="app.diagrams.net" modified="2024-01-30T03:02:15.248Z" agent="Mozilla/5.0 (Windows NT 10.0; Win64; x64; rv:122.0) Gecko/20100101 Firefox/122.0" version="23.0.2" etag="uu128C9VbpKC7NAEcJ9P" type="github">
  <diagram name="Page-1" id="OP82gXhA60WdVVMeu1yT">
    <mxGraphModel>
      <root>
        <mxCell id="0" />
        <mxCell id="1" parent="0" />
      </root>
    </mxGraphModel>
  </diagram>
</mxfile>
